<?xml version="1.0" encoding="UTF-8" standalone="no"?>
<!-- Created with Inkscape (http://www.inkscape.org/) -->

<svg
   xmlns:dc="http://purl.org/dc/elements/1.1/"
   xmlns:cc="http://creativecommons.org/ns#"
   xmlns:rdf="http://www.w3.org/1999/02/22-rdf-syntax-ns#"
   xmlns:svg="http://www.w3.org/2000/svg"
   xmlns="http://www.w3.org/2000/svg"
   xmlns:sodipodi="http://sodipodi.sourceforge.net/DTD/sodipodi-0.dtd"
   xmlns:inkscape="http://www.inkscape.org/namespaces/inkscape"
   width="420.05954"
   height="200.11905"
   id="svg2"
   version="1.1"
   inkscape:version="0.48.2 r9819"
   sodipodi:docname="adjusted GO_Transit_logo.svg">
  <defs
     id="defs4">
    <clipPath
       clipPathUnits="userSpaceOnUse"
       id="clipPath3795">
      <rect
         style="fill:none;stroke:#4a7729;stroke-width:1.9697715;stroke-miterlimit:4;stroke-opacity:1;stroke-dasharray:none"
         id="rect3797"
         width="194"
         height="420"
         x="-10"
         y="327.86218" />
    </clipPath>
    <clipPath
       clipPathUnits="userSpaceOnUse"
       id="clipPath3795-1">
      <rect
         style="fill:none;stroke:#4a7729;stroke-width:1.9697715;stroke-miterlimit:4;stroke-opacity:1;stroke-dasharray:none"
         id="rect3797-7"
         width="194"
         height="420"
         x="-10"
         y="327.86218" />
    </clipPath>
    <clipPath
       clipPathUnits="userSpaceOnUse"
       id="clipPath3795-1-0">
      <rect
         style="fill:none;stroke:#4a7729;stroke-width:1.9697715;stroke-miterlimit:4;stroke-opacity:1;stroke-dasharray:none"
         id="rect3797-7-9"
         width="194"
         height="420"
         x="-10"
         y="327.86218" />
    </clipPath>
    <clipPath
       clipPathUnits="userSpaceOnUse"
       id="clipPath3795-4">
      <rect
         style="fill:none;stroke:#4a7729;stroke-width:1.9697715;stroke-miterlimit:4;stroke-opacity:1;stroke-dasharray:none"
         id="rect3797-8"
         width="194"
         height="420"
         x="-10"
         y="327.86218" />
    </clipPath>
    <clipPath
       clipPathUnits="userSpaceOnUse"
       id="clipPath3795-45">
      <rect
         style="fill:none;stroke:#4a7729;stroke-width:1.9697715;stroke-miterlimit:4;stroke-opacity:1;stroke-dasharray:none"
         id="rect3797-5"
         width="194"
         height="420"
         x="-10"
         y="327.86218" />
    </clipPath>
    <clipPath
       clipPathUnits="userSpaceOnUse"
       id="clipPath3909">
      <rect
         style="fill:none;stroke:#4a7729;stroke-width:1.71292472;stroke-linecap:square;stroke-linejoin:round;stroke-miterlimit:4;stroke-opacity:1;stroke-dasharray:none;stroke-dashoffset:0"
         id="rect3911"
         width="183.78947"
         height="184.39024"
         x="-183.78947"
         y="332.48413"
         transform="scale(-1,1)" />
    </clipPath>
    <clipPath
       clipPathUnits="userSpaceOnUse"
       id="clipPath3795-2">
      <rect
         style="fill:none;stroke:#4a7729;stroke-width:1.9697715;stroke-miterlimit:4;stroke-opacity:1;stroke-dasharray:none"
         id="rect3797-2"
         width="194"
         height="420"
         x="-10"
         y="327.86218" />
    </clipPath>
    <clipPath
       clipPathUnits="userSpaceOnUse"
       id="clipPath3795-8">
      <rect
         style="fill:none;stroke:#4a7729;stroke-width:1.9697715;stroke-miterlimit:4;stroke-opacity:1;stroke-dasharray:none"
         id="rect3797-57"
         width="194"
         height="420"
         x="-10"
         y="327.86218" />
    </clipPath>
  </defs>
  <sodipodi:namedview
     id="base"
     pagecolor="#ffffff"
     bordercolor="#666666"
     borderopacity="1.0"
     inkscape:pageopacity="0.0"
     inkscape:pageshadow="2"
     inkscape:zoom="1.2705934"
     inkscape:cx="161.66762"
     inkscape:cy="95.168909"
     inkscape:document-units="px"
     inkscape:current-layer="layer1"
     showgrid="true"
     fit-margin-top="0"
     fit-margin-left="0"
     fit-margin-right="0"
     fit-margin-bottom="0"
     inkscape:window-width="1366"
     inkscape:window-height="706"
     inkscape:window-x="-8"
     inkscape:window-y="-8"
     inkscape:window-maximized="1">
    <inkscape:grid
       type="xygrid"
       id="grid2985"
       empspacing="5"
       visible="true"
       enabled="true"
       snapvisiblegridlinesonly="true" />
  </sodipodi:namedview>
  <metadata
     id="metadata7">
    <rdf:RDF>
      <cc:Work
         rdf:about="">
        <dc:format>image/svg+xml</dc:format>
        <dc:type
           rdf:resource="http://purl.org/dc/dcmitype/StillImage" />
        <dc:title></dc:title>
      </cc:Work>
    </rdf:RDF>
  </metadata>
  <g
     inkscape:label="Layer 1"
     inkscape:groupmode="layer"
     id="layer1"
     transform="translate(-217.75,-427.67766)">
    <path
       transform="matrix(0.48969072,0,0,0.48809524,217.75,265.45326)"
       style="fill:#000000;fill-opacity:1;fill-rule:nonzero;stroke:none"
       clip-path="url(#clipPath3795)"
       d="m 410,537.36218 c 0,113.21838 -91.78163,205 -205,205 -113.218374,0 -205,-91.78162 -205,-205 0,-113.21837 91.781626,-205 205,-205 113.21837,0 205,91.78163 205,205 z"
       id="path3009" />
    <path
       transform="matrix(-0.48969072,0,0,0.48809524,417.75,265.51279)"
       style="fill:#000000;fill-opacity:1;fill-rule:nonzero;stroke:none"
       clip-path="url(#clipPath3909)"
       d="m 410,537.36218 c 0,113.21838 -91.78163,205 -205,205 -113.218374,0 -205,-91.78162 -205,-205 0,-113.21837 91.781626,-205 205,-205 113.21837,0 205,91.78163 205,205 z"
       id="path3009-1" />
    <path
       transform="matrix(0,0.48969072,-0.48809524,0,800.03392,427.73718)"
       style="fill:#000000;fill-opacity:1;fill-rule:nonzero;stroke:none"
       clip-path="url(#clipPath3795-2)"
       d="m 410,537.36218 c 0,113.21838 -91.78163,205 -205,205 -113.218374,0 -205,-91.78162 -205,-205 0,-113.21837 91.781626,-205 205,-205 113.21837,0 205,91.78163 205,205 z"
       id="path3009-16" />
    <path
       transform="matrix(0,-0.48969072,0.48809524,0,275.5256,628.18331)"
       style="fill:#000000;fill-opacity:1;fill-rule:nonzero;stroke:none"
       clip-path="url(#clipPath3795-8)"
       d="m 410,537.36218 c 0,113.21838 -91.78163,205 -205,205 -113.218374,0 -205,-91.78162 -205,-205 0,-113.21837 91.781626,-205 205,-205 113.21837,0 205,91.78163 205,205 z"
       id="path3009-6" />
  </g>
  <g
     inkscape:groupmode="layer"
     id="layer2"
     inkscape:label="Layer 2"
     transform="translate(-217.75,-427.67766)">
    <path
       style="fill:#000000;fill-opacity:1;fill-rule:nonzero;stroke:none"
       d="m 327.75,537.73718 90,0 0,90 -90,0 z"
       id="rect3804" />
  </g>
</svg>
